<svg width="148" height="35" viewBox="0 0 148 35" fill="none" xmlns="http://www.w3.org/2000/svg">
<path d="M95.958 29.3262C96.1072 29.3262 96.1819 29.3859 96.1819 29.5054V30.2985C96.1819 30.424 96.1072 30.4853 95.958 30.4823H92.873V34.8064C92.873 34.9259 92.8013 34.9856 92.658 34.9856H91.5879C91.4446 34.9856 91.373 34.9259 91.373 34.8064V30.4823H88.2925C88.1432 30.4823 88.0686 30.421 88.0686 30.2985V29.5054C88.0686 29.3859 88.1432 29.3262 88.2925 29.3262H95.958Z" fill="white"/>
<path d="M112.78 29.3262C112.93 29.3262 113.004 29.3859 113.004 29.5054V30.2717C113.004 30.3911 112.93 30.4509 112.78 30.4509H108.491C108.279 30.4477 108.068 30.4657 107.859 30.5047C107.713 30.5309 107.574 30.5924 107.457 30.6839C107.352 30.7724 107.279 30.8916 107.246 31.0245C107.204 31.1974 107.184 31.3752 107.188 31.5532V31.6339H112.731C112.874 31.6339 112.946 31.6936 112.946 31.8131V32.4539C112.946 32.5734 112.874 32.6331 112.731 32.6331H107.201V32.772C107.197 32.9501 107.217 33.1279 107.259 33.3008C107.292 33.4337 107.366 33.5528 107.47 33.6413C107.588 33.733 107.726 33.7945 107.873 33.8206C108.081 33.8598 108.293 33.8778 108.504 33.8744H112.794C112.943 33.8744 113.018 33.9341 113.018 34.0536V34.8198C113.018 34.9393 112.943 34.9991 112.794 34.9991H108.477C108.052 35.0063 107.628 34.9687 107.21 34.8871C106.903 34.8296 106.612 34.7041 106.36 34.5196C106.14 34.3486 105.974 34.1185 105.88 33.8564C105.771 33.538 105.72 33.2027 105.728 32.8661V31.4726C105.72 31.1375 105.771 30.8036 105.88 30.4867C105.975 30.2264 106.141 29.998 106.36 29.828C106.612 29.643 106.903 29.516 107.21 29.4561C107.627 29.3713 108.052 29.3323 108.477 29.3396L112.78 29.3262Z" fill="white"/>
<path d="M130.251 29.3262C130.394 29.3262 130.466 29.3859 130.466 29.5054V30.2985C130.466 30.424 130.394 30.4853 130.251 30.4823H125.886C125.674 30.4788 125.462 30.4968 125.254 30.536C125.109 30.5619 124.972 30.6235 124.856 30.7153C124.754 30.8044 124.681 30.9212 124.645 31.0513C124.599 31.2251 124.578 31.4047 124.583 31.5846V32.7317C124.584 32.9124 124.611 33.0919 124.663 33.2649C124.698 33.3968 124.771 33.5153 124.874 33.6055C124.99 33.6973 125.127 33.7588 125.272 33.7847C125.48 33.824 125.692 33.842 125.903 33.8385H130.269C130.412 33.8385 130.484 33.8983 130.484 34.0177V34.8109C130.484 34.9304 130.412 34.9901 130.269 34.9901H125.845C125.42 34.9973 124.995 34.9598 124.578 34.8781C124.271 34.8205 123.98 34.695 123.727 34.5107C123.508 34.3396 123.342 34.1096 123.248 33.8475C123.139 33.529 123.088 33.1937 123.096 32.8572V31.4726C123.088 31.1375 123.139 30.8037 123.248 30.4867C123.343 30.2264 123.509 29.998 123.727 29.828C123.98 29.6431 124.271 29.5162 124.578 29.4561C124.995 29.3713 125.42 29.3323 125.845 29.3396L130.251 29.3262Z" fill="white"/>
<path d="M141.678 29.3262C141.821 29.3262 141.893 29.3859 141.893 29.5054V31.607H146.487V29.5054C146.487 29.3859 146.558 29.3262 146.701 29.3262H147.763C147.912 29.3262 147.987 29.3859 147.987 29.5054V34.8109C147.987 34.9304 147.912 34.9901 147.763 34.9901H146.701C146.558 34.9901 146.487 34.9304 146.487 34.8109V32.66H141.888V34.8109C141.888 34.9304 141.817 34.9901 141.673 34.9901H140.612C140.463 34.9901 140.388 34.9304 140.388 34.8109V29.5054C140.388 29.3859 140.463 29.3262 140.612 29.3262H141.678Z" fill="white"/>
<path d="M31.5313 12.1334C31.8507 12.1334 32.0119 12.2828 32.0149 12.5815V20.5979C32.0048 21.0503 32.053 21.5021 32.1582 21.9422C32.2332 22.2615 32.3961 22.5533 32.6283 22.7847C32.8809 23.0123 33.1903 23.1671 33.5238 23.2328C33.9876 23.3287 34.4607 23.3723 34.9342 23.3627H40.9968C41.4703 23.3723 41.9434 23.3287 42.4072 23.2328C42.7407 23.1671 43.0501 23.0123 43.3027 22.7847C43.5297 22.5527 43.6852 22.2603 43.7505 21.9422C43.8468 21.5009 43.8904 21.0496 43.8803 20.5979V12.577C43.8803 12.2783 44.0415 12.1289 44.3639 12.1289H46.7549C47.0743 12.1289 47.2355 12.2783 47.2384 12.577V20.9026C47.2574 21.7361 47.1472 22.5675 46.9116 23.3672C46.7179 24.0049 46.3504 24.5759 45.8504 25.0162C45.2962 25.4619 44.6439 25.7691 43.9475 25.9124C43.0168 26.116 42.0657 26.2108 41.1132 26.1947H34.791C33.8414 26.2114 32.8932 26.1167 31.9657 25.9124C31.272 25.7689 30.6226 25.4616 30.0717 25.0162C29.5694 24.5753 29.1977 24.0049 28.9971 23.3672C28.7528 22.5691 28.638 21.7371 28.6568 20.9026V12.577C28.6568 12.2783 28.8239 12.1289 29.1582 12.1289L31.5313 12.1334Z" fill="white"/>
<path d="M103.651 12.1328C103.985 12.1328 104.152 12.2822 104.152 12.5809V14.4898C104.152 14.7886 103.985 14.9379 103.651 14.9379H94.0821C93.6086 14.9285 93.1356 14.9721 92.6717 15.0679C92.3395 15.1372 92.0309 15.2916 91.7762 15.516C91.5391 15.7436 91.3754 16.0369 91.3061 16.3584C91.2109 16.7908 91.1673 17.2331 91.1762 17.6758V17.8774H103.543C103.862 17.8774 104.024 18.0268 104.027 18.3255V19.9163C104.027 20.215 103.865 20.3644 103.543 20.3644H91.1717V20.7049C91.1628 21.1477 91.2064 21.5899 91.3016 22.0223C91.3706 22.3439 91.5344 22.6373 91.7717 22.8648C92.0264 23.0893 92.335 23.2437 92.6672 23.3129C93.131 23.4088 93.6041 23.4523 94.0777 23.4428H103.642C103.976 23.4428 104.143 23.5922 104.143 23.8909V25.7998C104.143 26.0985 103.976 26.2479 103.642 26.2479H94.015C93.0654 26.2646 92.1172 26.1699 91.1897 25.9656C90.4961 25.8219 89.8467 25.5147 89.2957 25.0694C88.7934 24.6285 88.4217 24.0581 88.2211 23.4204C87.9769 22.6223 87.862 21.7903 87.8808 20.9559V17.4428C87.8613 16.6113 87.9762 15.782 88.2211 14.9872C88.4236 14.3529 88.7951 13.7859 89.2957 13.3472C89.846 12.8951 90.4947 12.5789 91.1897 12.4241C92.1162 12.2132 93.0649 12.1154 94.015 12.1328H103.651Z" fill="white"/>
<path d="M110.639 12.1333C110.918 12.1294 111.197 12.1489 111.472 12.1916C111.691 12.2264 111.899 12.3057 112.086 12.4246C112.268 12.544 112.428 12.6959 112.556 12.8727C112.729 13.1163 112.879 13.3759 113.004 13.6479L117.557 23.2999C117.584 23.3569 117.628 23.4045 117.682 23.4365C117.736 23.4685 117.799 23.4833 117.862 23.4791H118.126C118.189 23.4833 118.251 23.4685 118.306 23.4365C118.36 23.4045 118.403 23.3569 118.43 23.2999L122.962 13.6613C123.086 13.3891 123.236 13.1295 123.409 12.8861C123.537 12.7089 123.696 12.557 123.879 12.438C124.062 12.3207 124.266 12.2414 124.479 12.205C124.75 12.1621 125.025 12.1426 125.299 12.1468H127.641C128.399 12.1468 128.909 12.3036 129.172 12.6173C129.48 13.0974 129.618 13.6668 129.566 14.2349V25.7779C129.566 26.0766 129.399 26.226 129.064 26.226H126.826C126.503 26.226 126.342 26.0766 126.342 25.7779V15.27C126.342 15.1356 126.284 15.0683 126.167 15.0683H125.97C125.912 15.0604 125.852 15.0719 125.8 15.101C125.749 15.1301 125.708 15.1753 125.684 15.2297L121.26 24.2409C121.108 24.555 120.928 24.855 120.723 25.1371C120.556 25.3689 120.357 25.5757 120.132 25.751C119.917 25.9127 119.672 26.0286 119.411 26.0915C119.098 26.1627 118.778 26.1958 118.457 26.1901H117.405C117.084 26.1959 116.764 26.1628 116.451 26.0915C116.19 26.0287 115.945 25.9128 115.73 25.751C115.505 25.5758 115.306 25.3691 115.139 25.1371C114.934 24.8551 114.754 24.5551 114.602 24.2409L110.178 15.2297C110.154 15.1753 110.114 15.1301 110.062 15.101C110.01 15.0719 109.951 15.0604 109.892 15.0683H109.695C109.578 15.0683 109.52 15.1356 109.52 15.27V25.7689C109.52 26.0676 109.359 26.217 109.037 26.217H106.798C106.46 26.217 106.293 26.0676 106.296 25.7689V14.2259C106.244 13.6578 106.382 13.0885 106.69 12.6083C106.953 12.2946 107.471 12.1378 108.244 12.1378L110.639 12.1333Z" fill="white"/>
<path d="M147.498 12.1328C147.833 12.1328 148 12.2822 148 12.5809V14.4898C148 14.7886 147.833 14.9379 147.498 14.9379H137.912C137.439 14.9285 136.966 14.9721 136.502 15.0679C136.169 15.1372 135.861 15.2916 135.606 15.516C135.369 15.7436 135.205 16.0369 135.136 16.3584C135.041 16.7908 134.997 17.2331 135.006 17.6758V17.8774H147.373C147.692 17.8774 147.854 18.0268 147.857 18.3255V19.9163C147.857 20.215 147.695 20.3644 147.373 20.3644H135.002V20.7049C134.993 21.1477 135.036 21.5899 135.132 22.0223C135.201 22.3439 135.364 22.6373 135.602 22.8648C135.856 23.0893 136.165 23.2437 136.497 23.3129C136.961 23.4088 137.434 23.4523 137.908 23.4428H147.498C147.833 23.4428 148 23.5922 148 23.8909V25.7998C148 26.0985 147.833 26.2479 147.498 26.2479H137.849C136.9 26.2646 135.952 26.1699 135.024 25.9656C134.331 25.8219 133.681 25.5147 133.13 25.0694C132.628 24.6285 132.256 24.0581 132.056 23.4204C131.811 22.6223 131.696 21.7903 131.715 20.9559V17.4428C131.696 16.6113 131.811 15.782 132.056 14.9872C132.258 14.3529 132.63 13.7859 133.13 13.3472C133.68 12.8951 134.329 12.5789 135.024 12.4241C135.951 12.2132 136.899 12.1154 137.849 12.1328H147.498Z" fill="white"/>
<path d="M27.0267 0.890178C22.9209 -2.13448 13.9927 2.79459 7.09734 11.9492C0.201975 21.1038 -2.05021 30.9754 2.03775 34.0225C5.40932 36.5139 12.0181 33.6326 18.0941 27.4623C12.9763 32.5079 7.55404 34.8604 4.51382 32.956C4.41531 32.8978 4.3168 32.8395 4.22278 32.7723C0.775095 30.3302 1.92582 22.7304 6.63168 14.9828C7.2048 14.0329 7.82717 13.0829 8.50328 12.1374C14.7046 3.4757 22.8895 -1.3055 26.7805 1.4727C29.7267 3.5698 29.3685 9.38162 26.3327 15.8387C29.6058 9.15757 30.067 3.14411 27.0267 0.890178Z" fill="white"/>
<path d="M66.4557 15.9237C66.468 14.9014 66.0789 13.9151 65.3722 13.1769C64.6408 12.4808 63.4364 12.1328 61.7588 12.1328H50.0188C49.58 12.1328 49.3606 12.3345 49.3606 12.7377V23.9402C49.3606 23.9402 49.3606 23.9402 49.3606 23.9626V25.755C49.3606 26.0537 49.5278 26.2031 49.8621 26.2031H52.2262C52.5456 26.2031 52.7068 26.0537 52.7098 25.755V23.9626C52.7098 23.9626 52.7098 23.9626 52.7098 23.9402V20.3554H61.7722C63.4498 20.3554 64.6543 20.0298 65.3856 19.3785C66.0077 18.7924 66.3838 17.9914 66.4378 17.1381C66.4643 16.915 66.4778 16.6906 66.4781 16.4659V16.2508C66.4781 16.1567 66.4557 16.0402 66.4557 15.9237ZM62.6588 17.4652C62.199 17.7855 61.6403 17.9316 61.0827 17.8774H52.7098V15.1485C52.7098 14.9872 52.8053 14.9065 52.9963 14.9065H61.0827C61.6458 14.8512 62.2089 15.0113 62.6588 15.3546C62.9379 15.6512 63.0974 16.0407 63.1065 16.448C63.0978 16.8303 62.9423 17.1946 62.6722 17.4652H62.6588Z" fill="white"/>
<path d="M86.2468 25.7056L86.1169 25.5578L81.6797 20.3374C83.0349 20.2657 84.0304 19.9461 84.6662 19.3785C85.2883 18.7923 85.6645 17.9914 85.7184 17.138C85.7449 16.9149 85.7584 16.6905 85.7587 16.4659V16.2508C85.7587 16.1298 85.7587 16.0178 85.7587 15.9013C85.771 14.879 85.3819 13.8927 84.6752 13.1544C83.9438 12.4584 82.7394 12.1104 81.0618 12.1104H69.2815C68.8427 12.1104 68.6233 12.312 68.6233 12.7153V23.9177C68.6233 23.9177 68.6233 23.9177 68.6233 23.9401V25.7325C68.6233 26.0312 68.7905 26.1806 69.1248 26.1806H71.4889C71.8083 26.1806 71.9695 26.0312 71.9725 25.7325V23.9401C71.9725 23.9401 71.9725 23.9401 71.9725 23.9177V20.3329H77.9007L80.9006 23.9625L82.526 25.9297C82.5847 26.0111 82.6593 26.0797 82.7454 26.1313C82.8707 26.1801 83.0053 26.2 83.1394 26.1896H85.9647C86.1677 26.1896 86.2841 26.1224 86.3139 25.9879C86.3279 25.9391 86.3291 25.8874 86.3173 25.838C86.3056 25.7885 86.2813 25.7429 86.2468 25.7056ZM71.9725 17.1604V15.1485C71.9725 14.9871 72.068 14.9065 72.259 14.9065H80.3365C80.8995 14.8512 81.4626 15.0113 81.9125 15.3546C82.1916 15.6512 82.3511 16.0406 82.3603 16.4479C82.3491 16.8337 82.1886 17.2001 81.9125 17.4696C81.4527 17.7899 80.8941 17.936 80.3365 17.8818H71.9725V17.1604Z" fill="white"/>
<path d="M25.8356 20.0056C26.0247 19.8251 26.1721 19.6053 26.2673 19.3618C26.3626 19.1183 26.4035 18.8568 26.387 18.5958C26.3706 18.3347 26.2973 18.0805 26.1723 17.8508C26.0472 17.6212 25.8735 17.4217 25.6632 17.2663C25.453 17.111 25.2113 17.0036 24.9552 16.9517C24.699 16.8998 24.4346 16.9046 24.1806 16.9658C23.9265 17.0269 23.6888 17.143 23.4844 17.3059C23.2799 17.4687 23.1135 17.6744 22.9968 17.9085C23.759 17.9627 24.4838 18.2595 25.0654 18.7554C25.4267 19.0977 25.6922 19.5287 25.8356 20.0056Z" fill="white"/>
<path d="M24.6358 20.4675C25.0773 20.4712 25.5046 20.3117 25.8357 20.0194C25.6917 19.5442 25.4262 19.1148 25.0656 18.7737C24.484 18.2778 23.7591 17.981 22.997 17.9268C22.8682 18.2013 22.8111 18.504 22.831 18.8066C22.851 19.1093 22.9473 19.4019 23.1111 19.6571C23.2748 19.9123 23.5006 20.1217 23.7672 20.2658C24.0339 20.4099 24.3327 20.4839 24.6358 20.4809V20.4675Z" fill="white"/>
<path d="M24.6354 20.6741C24.1025 20.6729 23.5919 20.4606 23.2151 20.0835C22.8383 19.7065 22.6262 19.1954 22.625 18.6622C22.6254 18.3974 22.6787 18.1353 22.7817 17.8914C22.5936 17.8914 22.4056 17.8645 22.1996 17.8645H14.0013C13.8478 17.8876 13.6911 17.8745 13.5435 17.8264C13.396 17.7782 13.2617 17.6963 13.1513 17.5871C13.0409 17.478 12.9575 17.3445 12.9076 17.1975C12.8577 17.0504 12.8428 16.8937 12.864 16.7398V16.0542C12.8478 15.7563 12.9419 15.4627 13.1282 15.2297C13.2472 15.1184 13.3888 15.034 13.5433 14.9822C13.6978 14.9304 13.8616 14.9124 14.0237 14.9295H24.9757C25.2951 14.9295 25.4548 14.7801 25.4548 14.4814V12.577C25.4548 12.2783 25.2951 12.1289 24.9757 12.1289H13.3923C12.067 12.1289 11.0909 12.4276 10.4641 13.0251C10.1496 13.3328 9.90338 13.7033 9.74139 14.1124C9.57939 14.5216 9.50525 14.9603 9.52377 15.4V16.8698C9.49219 17.3424 9.56172 17.8162 9.72773 18.2598C9.89374 18.7033 10.1524 19.1063 10.4864 19.4419C11.1282 20.0393 12.0834 20.338 13.352 20.338H21.5459C21.6994 20.315 21.8561 20.3281 22.0036 20.3762C22.1512 20.4244 22.2855 20.5063 22.3959 20.6155C22.5063 20.7246 22.5897 20.8581 22.6396 21.0051C22.6895 21.1522 22.7044 21.3089 22.6832 21.4628V22.2873C22.6993 22.5852 22.6053 22.8788 22.419 23.1118C22.2999 23.2231 22.1584 23.3075 22.0039 23.3593C21.8494 23.4111 21.6855 23.4291 21.5235 23.412H10.0387C9.70437 23.412 9.53721 23.5614 9.53721 23.8601V25.769C9.53721 26.0677 9.70437 26.2171 10.0387 26.2171H22.128C23.4533 26.2171 24.4294 25.9183 25.0563 25.3209C25.3707 25.0132 25.6169 24.6427 25.7789 24.2336C25.9409 23.8244 26.0151 23.3857 25.9965 22.946V21.3239C25.999 20.9539 25.9554 20.5852 25.8667 20.226C25.5181 20.5094 25.0844 20.6672 24.6354 20.6741Z" fill="white"/>
</svg>
